# xmcd
#
# Track frame offsets:
#	150
#	15388
#	35612
#	52578
#	66526
#	86751
#	97498
#	111978
#	128275
#	143270
#	158729
#
# Disc length: 2392 seconds
#
# Revision: 1
# Processed by: cddbd v1.5.1PL0 Copyright (c) Steve Scherf et al.
# Submitted via: dBpowerAMP V4.0
#
DISCID=8809560b
DTITLE=Kelly Hogan and the Pine Valley Cosmonauts - Beneath the Country Underdog
DYEAR=2000
DGENRE=Country
TTITLE0=(It's a Mighty Thin Line) Between Love and Hate
TTITLE1=I Still Can't Believe You're Gone
TTITLE2=Mystery
TTITLE3=I Don't Believe in You
TTITLE4=Papa Was a Rodeo
TTITLE5=Easy Loving
TTITLE6=Wild Mountain Berries
TTITLE7=Sudden Stop
TTITLE8=Crackers Rule
TTITLE9=Gone
TTITLE10=Whispering Pines
EXTD=
EXTT0=
EXTT1=
EXTT2=
EXTT3=
EXTT4=
EXTT5=
EXTT6=
EXTT7=
EXTT8=
EXTT9=
EXTT10=
PLAYORDER=
